<svg xmlns="http://www.w3.org/2000/svg" width="512" height="512" viewBox="0 0 512 512" fill="none">
<defs>
  <linearGradient id="bgGrad" x1="60" y1="50" x2="450" y2="460" gradientUnits="userSpaceOnUse">
    <stop offset="0%" stop-color="#2A0E6E"/>
    <stop offset="58%" stop-color="#0F4CCF"/>
    <stop offset="100%" stop-color="#10CBEA"/>
  </linearGradient>
  <linearGradient id="markGrad" x1="95" y1="180" x2="390" y2="300" gradientUnits="userSpaceOnUse">
    <stop offset="0%" stop-color="#FF4FA3"/>
    <stop offset="38%" stop-color="#FF5E7A"/>
    <stop offset="100%" stop-color="#7FE7FF"/>
  </linearGradient>
</defs>
<rect x="22" y="22" width="468" height="468" rx="96" fill="url(#bgGrad)"/>
<g transform="translate(18,16) scale(0.47)">
  <path d="M 150 520 C 205 520, 225 500, 255 430 C 275 385, 300 365, 320 450 C 338 530, 360 620, 400 620 C 445 620, 465 540, 485 360 C 495 275, 515 210, 545 210 C 580 210, 595 310, 595 455 C 595 620, 612 730, 655 730 C 700 730, 712 650, 725 585 C 735 540, 752 520, 785 520" stroke="url(#markGrad)" stroke-width="64" stroke-linecap="round" stroke-linejoin="round"/>
  <line x1="735" y1="470" x2="845" y2="470" stroke="url(#markGrad)" stroke-width="64" stroke-linecap="round"/>
</g>
</svg>